<svg xmlns="http://www.w3.org/2000/svg" viewBox="0 0 512 512" fill="white">
    <path d="M494.9 96c11.8-9.4 13.8-26.6 4.4-38.5s-26.6-13.8-38.5-4.4L181.5 256H64c-35.3 0-64 28.7-64 64V448c0 35.3 28.7 64 64 64H448c35.3 0 64-28.7 64-64V320c0-35.3-28.7-64-64-64H218.5L494.9 96zM384 352a64 64 0 1 1 0 128 64 64 0 1 1 0-128zM128 384c0-8.8 7.2-16 16-16H272c8.8 0 16 7.2 16 16s-7.2 16-16 16H144c-8.8 0-16-7.2-16-16zm0 64c0-8.8 7.2-16 16-16H272c8.8 0 16 7.2 16 16s-7.2 16-16 16H144c-8.8 0-16-7.2-16-16z"/>
</svg>
